<mxfile host="app.diagrams.net" modified="2023-08-29T14:00:28.626Z" agent="Mozilla/5.0 (Windows NT 10.0; Win64; x64) AppleWebKit/537.36 (KHTML, like Gecko) Chrome/116.0.0.0 Safari/537.36" etag="VZ07avGj9f7984gRD6KL" version="21.6.9" type="github">
  <diagram name="PÃ¡gina-1" id="41KtaJKyYYlBEL67txXW">
    <mxGraphModel dx="880" dy="438" grid="1" gridSize="10" guides="1" tooltips="1" connect="1" arrows="1" fold="1" page="1" pageScale="1" pageWidth="827" pageHeight="1169" math="0" shadow="0">
      <root>
        <mxCell id="0" />
        <mxCell id="1" parent="0" />
        <mxCell id="nSwH4TlJyu2oXSUZGrsc-9" value="" style="shape=image;verticalLabelPosition=bottom;labelBackgroundColor=default;verticalAlign=top;aspect=fixed;imageAspect=0;image=data:image/png,iVBORw0KGgoAAAANSUhEUgAAAOEAAADhCAMAAAAJbSJIAAAApVBMVEX///8AAAAHBwfQ0NBBQUH5+fkQEBC/v79FRUXe3t5MTEyYmJj09PQ8l9A3lc9bW1uPj4/o6OhycnIxMTHKyspInNKvr687OzsaGhrGxsbk5OQnJyfu7u7O4vHC2+7t9fqozOeFhYV1dXWjo6MrKyuenp7a2tpjY2N7tNzj7vdhp9eMveC4uLhqamp+fn5UVFS51uxrrNmZxOOsz+jZ6PR3stzn8fgHM0zEAAAISElEQVR4nO2aaVviPBSGG0pZ21KWQkEUEQRl08Hl//+0Nyd7gTozjvMKcz33h5Gkx5AnOUtSx/MAAAAAAAAAAAAAAAAAAAAAAAAAAAAAAAAAAAAAAAAAAAAAAAAAAAAAAAAAAAAAAH/O8/67Z/DVTB5ucu00Th+/aSp/iZs4jtbXth2s4/jl+6bzF3hdp3EUr5yNvI7ih++bzx8zeX19Dw76rt/yGierePX/zuoreY6J9GF/PXF639cR1/hq2us4nRz/7mVwE0dRlKZcUJy64TfZ831cm+b+ciU+vrzc7h9WERfKZUZru28T7qupad5erkTF+806JZFxahPnDW/e6gaXeBivl8fj7YpvW2Q1Tn7ENo3uLzndWB73tJGpyaM8Gld66x6cuLxkKMWk8UqfY655SwfgKn7+rll9LQFPnKkJwMfUSJxE8YVnGwOPvzT+oXVZiTfxj++b1BfzTDVSlQqSqLof/hU/9WgbeTSqhPMYR2rvuJ+ebclgnN+bHD+p6WDk6Ual0ZfzzaeV31bI1RiJL7Hez/Rsk80nFPLEYiQ+6DR6c7ab+BmF3DtTnVpSHYpv18X238qnFIpdlBn11fjpufI5hfz6mEbSPdemZJwpn1To7aNUHriDKLr90hl9NZ9V6P1II/k+kefTc02jgk8rnPAzqjyGa6mSoNrcbTvNTdvpW/Snnc60PzIdbQF98pudTlJ1Bx5tkrstt17ojlAY0yTr953t2HQPZ8ks9zWnMQrH/nARHjwM671hvUg/zzbST5+jyNgEO6YZDNUgSUV3dfvKTDa5voF6oh8sdsaYZTPZN9MWW/pZl529J2V1da+/u3nVzYZ2obLufOsovJ8L85q7mn5LjrGtn5b4FqmSEUX6VLrg5iWFmvXG7WLlUK0rtWju+sFU9N87xrzzSY1AjZnXED+FI4RPZMfkP5kvvzzhbTv/Om+1tEJvJBeOzFvGZGsWkyUnFU74KVxs3j5St/y2M78Sa6uvLTkw2XslJpu41huxqDnjkpxNVRjf34tnQiGffUnsshCpPYAPl1NYsgpHwqlqV0JjWRoEXW6RTZtJi8ZonpR4G8kIfIxVRD7JSSgno54+K5ku+alC3V1pKJ6UnH7PrqrspRkPhd1dxShsC1kJuda4T4slJRYqLGU8GGa0GaMWWXeEQY0bSA+vZ/yjCfsc/CYlNnElC0ZbzqHhh+NhUtnaTWVZ3+9t1aTveP/AeOe8oj+KyS1Z494fe8GiI3+xxvt6at3kSo2EB7CGyRkkTERnsUK+fjpBTalFamasZKJ/zMdtnFT4omrhrXTTqpyKGox+qHl2RceMGe8tq4+UGTfq845seibm5YKwUCsU+mrbqzoP1pKKUE+PK1biI4U2jdPWLT3hLTYim8w1ceGRSD8eZUmUc2W+eRyoyatfbsjnTfE19GnpKNfhoZEhyYY2OJnKrToCDDsmvrRYoVw9yYK2PKTwcRxzZDz2kH0kT6WrBwpEtYdm83WHdgC1AgOjsO6sAxUPSbhpdhqDueztG4V6WD6oTEvOQjLy/Q8U+o41JZiex9PL3OnkIyxPKnyP0zfbCpnONB05pEyWZnVCI6XGXE0qhygBtVyqaZrd7CrrHbOLYbuyDxUGOWPyhgpJCjVexgvrSYXeKnVfXyQ2YgakcclsDiFKTAViXuHAKlx0D6qLVag9rXy83Nw5ePR/UC1cheSf04CZnK/W82jZFDzXuJenJbMam6Z6GB/p6oSfV1g2Cnt6607soa5YV/p4YPFFovhFhbQcd+1DhceOoeBumvsradMeSnjcPJlsIZmf3kOjcKzdvJHM+qxY4c7L81sKKY53XCG7auR48k6Tpvnr4Tgxy890sTB5gekKUKBwp1KsqDdFCr/CS5OQycL8C6yj+PA/LAxbSmJPHbS0U41ks3KYaYxCWdVlSgmKFE6PHapjMo1J48UKp5SLKf0WbdoBN/bYbVEedq/mpquXErwtUqjORPIUHBYpPF0tOrJs2+Ol7+ZS99LE8xovU/PCwDtkEkcn/mON3IxEu2VfT0SH5WmFdXfLZ0UKqXZVct92JyveRmsSTF2FM2tMe5vJx33vl0hT+zeLLJEXUl8LUwVR5JpQlXkqtHmF6gFPNNI6FEMUKpyxUi4SqV1Wcze7RUnLKnS2q8WElyihv8LKphq6o8y30+lSxeHYFHNW2+lCImpHQRxq611zWVwtpJ89mbu+OHmLc2HJpo+A6qqMNOq1MUd7J8JyqU6zP+ctjfXHvi4ycnJ0SVnYAqdqiIiyAoVNtxqaoDxSOD66Pcm4pDhnd7SL/NqdlZUuOmIz1u2JPdgaazFIpa9ykG/fjhyxtn88vHOPIyol+rkzir5MF1X8jFlLcdKhoDxSSM4ilqGi7+2qPxONeZe6fX6DrymFGyrTWavVlUsjjRdykG5rSf0HycuFX4Pf1ce53Slmqk27Zgsk6/pak3uKsK12xRxtffl6piMWiXBv4cHSeYtR0ndadR0V1j2+3mKRAzH7qTmb2fwyLjPnZFNcHW9jWxCrW/ULg6nzbsfvqEGWph4vB2XOINcSJ98gkaZJ4PW6ZNKis6owdvIhZ2jeRNFe64tQqL7qjvvctJRdCYUZhb5+57VzvbGqB2Gt2eFbOMvzauWW/HCxWBy/4RsvfL/gfdYRdd//+StCmro/azb7I1FFnZuQv6n6J+3HfnV4PIdFr9rzT19+zwcqSWz2c7sLhl4kseJc+A9AL+MKruj/Ckv3NPNPwqt352z/p8TX0C+u1wAAAAAAAAAAAAAAAAAAAAAAAAAAAAAAAAAAAAAAAAAAAAAAAAAAAAAAAAAAAABcPv8ByXp+HaqlHu8AAAAASUVORK5CYII=;" vertex="1" parent="1">
          <mxGeometry x="326.01" y="287.92" width="151.25" height="151.25" as="geometry" />
        </mxCell>
        <mxCell id="nSwH4TlJyu2oXSUZGrsc-15" value="" style="shape=image;verticalLabelPosition=bottom;labelBackgroundColor=default;verticalAlign=top;aspect=fixed;imageAspect=0;image=https://discovery.endeavouros.com/wp-content/uploads/2019/10/GitLab-logo.png;" vertex="1" parent="1">
          <mxGeometry x="100" y="97.92" width="106.75" height="60" as="geometry" />
        </mxCell>
        <mxCell id="nSwH4TlJyu2oXSUZGrsc-16" value="" style="shape=image;verticalLabelPosition=bottom;labelBackgroundColor=default;verticalAlign=top;aspect=fixed;imageAspect=0;image=https://as2.ftcdn.net/v2/jpg/01/85/19/01/1000_F_185190180_f1mGCB7NsGS3Il9KoH2U2OhT4AukfUjA.jpg;" vertex="1" parent="1">
          <mxGeometry x="100" y="277.92" width="90" height="90" as="geometry" />
        </mxCell>
        <mxCell id="nSwH4TlJyu2oXSUZGrsc-25" value="" style="shape=image;verticalLabelPosition=bottom;labelBackgroundColor=default;verticalAlign=top;aspect=fixed;imageAspect=0;image=https://www.bugraptors.com/blog/public/blog_images/how-to-use-jenkins-tool-in-software-testing-what-are-its-features-600x400.jpg;" vertex="1" parent="1">
          <mxGeometry x="305.69" y="60" width="191.88" height="127.92" as="geometry" />
        </mxCell>
        <mxCell id="nSwH4TlJyu2oXSUZGrsc-26" value="pipeline" style="endArrow=classic;html=1;rounded=0;exitX=1;exitY=0.5;exitDx=0;exitDy=0;fontSize=13;fontStyle=1" edge="1" parent="1" source="nSwH4TlJyu2oXSUZGrsc-15">
          <mxGeometry width="50" height="50" relative="1" as="geometry">
            <mxPoint x="242.26" y="127.92" as="sourcePoint" />
            <mxPoint x="302.26" y="127.92" as="targetPoint" />
          </mxGeometry>
        </mxCell>
        <mxCell id="nSwH4TlJyu2oXSUZGrsc-27" value="deploy" style="endArrow=classic;html=1;rounded=0;exitX=1.024;exitY=0.695;exitDx=0;exitDy=0;exitPerimeter=0;fontSize=12;" edge="1" parent="1" source="nSwH4TlJyu2oXSUZGrsc-25">
          <mxGeometry width="50" height="50" relative="1" as="geometry">
            <mxPoint x="332.26" y="217.92000000000002" as="sourcePoint" />
            <mxPoint x="622.26" y="147.92000000000002" as="targetPoint" />
          </mxGeometry>
        </mxCell>
        <mxCell id="nSwH4TlJyu2oXSUZGrsc-28" value="analizer code" style="endArrow=classic;html=1;rounded=0;fontSize=13;" edge="1" parent="1" source="nSwH4TlJyu2oXSUZGrsc-25" target="nSwH4TlJyu2oXSUZGrsc-9">
          <mxGeometry width="50" height="50" relative="1" as="geometry">
            <mxPoint x="332.26" y="217.92000000000002" as="sourcePoint" />
            <mxPoint x="382.26" y="167.92000000000002" as="targetPoint" />
          </mxGeometry>
        </mxCell>
        <mxCell id="nSwH4TlJyu2oXSUZGrsc-29" value="pull request" style="endArrow=classic;html=1;rounded=0;exitX=0.613;exitY=0.005;exitDx=0;exitDy=0;exitPerimeter=0;labelBackgroundColor=none;fontStyle=1;fontSize=13;" edge="1" parent="1" source="nSwH4TlJyu2oXSUZGrsc-16">
          <mxGeometry relative="1" as="geometry">
            <mxPoint x="302.26" y="187.92000000000002" as="sourcePoint" />
            <mxPoint x="152.26" y="157.92000000000002" as="targetPoint" />
          </mxGeometry>
        </mxCell>
        <mxCell id="nSwH4TlJyu2oXSUZGrsc-32" value="" style="shape=image;verticalLabelPosition=bottom;labelBackgroundColor=default;verticalAlign=top;aspect=fixed;imageAspect=0;image=data:image/png,iVBORw0KGgoAAAANSUhEUgAAAWEAAACGCAYAAAAMyTtZAAAAAXNSR0IArs4c6QAAAARnQU1BAACxjwv8YQUAAAAJcEhZcwAADsMAAA7DAcdvqGQAAC+kSURBVHhe7Z0HgF3Veee/eX2KupCEOuoCIYEkiqiiGEy1IcHY2LFNNvbGSRzHjpPsJutk42w2ycZJnOYNsWPjBgGM8WJsTBFdAoGQqKpIQhLqvUx5ff+/8+bhYXhThEY8zcz3Q5c38+bee8q953++c853zqnJZLLFeDxmjuM4zvElm81Zc3OLWaSm9Rv92PrpOI7jVAEXYcdxnCriIuw4jlNFXIQdx3GqiIuw4zhOFXERdhzHqSIuwo7jOFXERdhxHKeKuAg7juNUERdhx3GcKuIi7DiOU0VchB3HcaqIi7DjOE4VcRF2HMepIi7CjuM4VcRF2HEcp4q4CDuO41QRF2HHcZwq4iLsOI5TRVyEHcdxqoiLsOM4ThVxEXYcx6kiLsKO4zhVxEXYcRynirgIO47jVBEXYcdxnCriIuw4jlNFXIQdx3GqiIuw4zhOFXERdhzHqSIuwo7jOFXERdhxHKeKuAg7juNUERdhx3GcKuIi7DiOU0VqMplsMR6Ptf7q9DQ79xds3da8bdqZtwTZXFP6vi3ZnNmMcTGbO9Wfg+P0ZbIq7M3NLTJ/fykELsLHmVc35Oynz2fskZczVpuqoMCiJV20m85P2ueuqW39xnGcvkglEfbuiONMkwR2w568Pb0xb89IkBdXOJ5+I28b9xZbr3Acpz/hIvx+oFyOqLExMFZjA+PvPkJDpLKR7DhOH8dF+P1CIlvDUfrxXYfjOP0TF2HHcZwq4iLsOI5TRVyE3w8Yc9NR1FGocPC94zj9Exfh40xeKptPm+WOFG1XU+UjrcMyrsSO0x9xP+HjzLa9eXttU95Wb82bRWsqj8LlijZ3UswuOC3e+oXjOH0Rn6zRAYWC2cHGgu0+WFDe1FTUSboN6lJmgxvUeNDPnJuVrlZqSpRt2tHDI5aRwO4/XLQDsoQ7Y+SQiI0e5g0Tx+nLuAh3QEumaC+tz9mjKzIWi1cW4Vy+aNPGRG3+lLgEuWgPLc/agcaiRSvoJoIdkRR/bGEqCPXrm3K2arN+qHRjUCVw9vSYXXJGovULx3H6Ii7CHbD/SMFufyRtf/S9RrMGZU4lscyY3XxOwj5/VcqaWor2u7c32epdEtZKWZczG6A//ezPByrTi/aDJzP2nafTZsnWv7enyexL16bsrz9d3/qF4zh9EZ+23BGyXAv0MsRqbLCOIRUOLN48+qwjlawJ5yejVvHceglzVp9FnYvnQ76maEWdOzj67nM5Ivpboc1D6QlyqgTe2pO3jdtztu+QTG3HcU5IXITLILAIawdHREc4RweCzLnx1r+1P+IIqoT1bbhOvyPalc6Pcq7O6UkaZa3/aHHG/uGBFvvhk2lb+abMc8dxTjgkAU5fg+6Stdtyds+zabtDQvyDp9N2r35+TUJM/7fjOCcOLsJ9DCT2rb0Fe3BZxlbuxNvDbN3OvN32RNr+9YFm27yrENYvdhznxMBFuI9BXzA+yXc9m7H61u6PuliNZbNmd7+ctW/8rMle964JxzlhcBEuI/HKq6m+t4Mj3aJzJGS4n9GkL6jJ35i2iuce0mFpHeWWf7i32b5255WPtO5j+fLJx8au/QVbuy1vmw8UQvj0YWMNS4ctIu194OWcPfpKxt7coUg5jlN13EVNHGku2qKXMnb7orRFaiuPkBUlqufPiNm1ZycsLUH95i9abOvhgtWgbu2RoCYlgF+5pc7yEr4nX8/aY6/rhw6ymXt/SPf91OWp1m/eO8+uzNrtj7fY92QJD0vWtPWECXXCQVUe8ybH7JMLk/ZrF6Us1nYA8QRi4/Z88O5gxHLyyVEbMSRywsa1p6Avf/vegm3cmbehA2psktIdJgc5fYZ+5yeczspi7cLAjOkd55Qd+wr2hprx8UqiKpisMXxQxMaeFAlG67oteVPWWaStyrVSLJbCnT0pFlzUdskq3a2jBrO0Atx73ElRmzw6atlcsUujmLskmVRS4XZ3PtFi/7GoxV5U/Bqi7z5Ht7eDijei//cfr7eRgyMV71MtmL14RGJ0h9KxRBUKLJydsA8vSARBqpDdfQLel1c2liYMLVmVtfHDo3bj+UmbOyVmDR0YBk7vo9+JMBYF2wt1BNkwbEDEBjXUWLPO2y4h7kyEKQyczx05N6/vKoswYlK0U0ZJVGXMHThSsENNxU7vPVT3HVxfE7oTGhWXzoSYioN7Jyrc72/va7JvPZq2Q7LuOa9SiPskwvNPidkXr0jZNeckTygLE9e65Wuz9sXvNdmrb+WDa2C9KpwHvzLQTp8QtZR+7ou06Jn8xb3N9o8/bw7vT3Oz2W9emrBbL0vZWdN9TZG+Qr8T4U997bCtkEVold5hWVzxnNlvX520806L24tv5O1vftRkNXUdFPKM2QfnxO0TlyTDxpx/eXezbZRgVuxiUJB1+tNtX2gI596/NGP3L8tYTQcbfZqeyad035svStrdsgDvfylreyWilRQUX+PxwyL2z7/RYKOHvrOpyjoV/1sF+fbHWlRBVBZgaNbfRg2ssatnx+2rn6wPVvWJAhXWA8+l7a8fTNvm3WqZKGpFWfQ/+O0GO296rM82z/cdLthXf9xs/65WzCBVroczRbtOz+fWS1N2xXyfzt5X6Hcz5jbsLtgbO/L21q53Hxt1vKZj96GitUhg96jwr9xesM2ynrdUOFbrPlsOFMKgXFZm6rq9BVvHdxXO3aDvX9eBRYuFve2g7r2z43uv2p63HYcKwSKmMG6Q+GDFt48z17+5q2BbFTYWdntwPaMLhs/OumESeuoHZZkvVwW1Rsfzq7P25MsZe/TFjD2syuKZ1zL2yoacbd1T6LQlcTzACgzdSGpvYAWzoBK1Cd00XXUt9WaoNMutHxbbYxYlni68E07fpk+LMFZqUlZwQ6LmXUedDsPAKOcABZ5zZXpVOj+GNa2CgSbQrcC5KV1f6dxaHcbBPx1s8hlJVj6XI048WvtvY/okrLoK8ajXUae/JXW/Sv245eLaVbGlkCPib0pkf/BM2r7zZIt9Wxb4d3R8V8e3n0jb7U+l7Xs67lqctgeXZ4LwY2m/H4S0VUif4/RF+rYI9zPiqiToJ+azqwEsplw3Nhft6w+32Leeydgdy7J278tZu//VrP1gacb++dEW+9N7muwL32q0P/puo/1iRcY27iiEPlvHcXoOF+E+RELWc70sbvp4cyU34U5hXG9EssZGysLmGK7r6I8cwe98X1djA2prbM+Rov3R95vsz+9ssqdeKXksOI7TM7gI9yEwficNj9rUkRFr6WYHKhZzZ0fon9R5h3NFyxZZP9ktYcfpSfq2COdLfZ/N+eK7jrQOPCTamovoVqVzORg4CeeX0c8d3Tuj4x3n6teizm1pd175yLeLBwMyiGj785rCUQq3IzN3yqiITRsdtXROp3RwztGCGOPGhh/zlDF905PGcapFnxZh3LDGDI7YiEHvPk7W96cMidhANbfx0BuYqrEJ+p3JC5XOH6fvh9fXhIEzzh89IGKjO7n3eN0rqaY9XQPD6yM2Ub9XOpdjrP42RE3/qNSO5v/J+o6j0rkjBul+CrvSjh4wbkTUZoyNhkE8NPhYdZiKCUGfNjJq8yfHwiwux3F6jj7tJ/ztB5vDpIqOJiPg/nT2zJhNHRO1LbsK9tALGUt24JLJAjhTx0XtrBnxoGwPLk3bQbY3qnBvZn3BJz6QsoyuY8GclZtyFT0agHPOnRm3+dNjtnRV1ta+lQ+ube/yENBXuG0NlGDffEkq+MwGkQ3/Kwkmuzs/9WrW/uruJntdaSJ6dCm8F7gtVvdBxeVvb6mz689O2HiJ/NHAPciPMIFF/2trnZMfPAMsbX7m2H+4YPctbrGvPZq2bXsKFlcm5BXkdz5bbxeeGg+TWrqiFFZruPzXJsy3w9Nt+Owp3hEm6Wz9Ht5OZydhMqPyqz9ptv94rMWGquI+lCvalXrXbr00aVef09GWLJUhDrSuyG/C5f0nDt2lnI5On5fS0t1bcgtakkxgYtZopfj8Mu9K4ZZpG2ZY07uX0ycna/DgOnKdYvorf+/sZUFEcTnjPHyAOyokvBflcyGtcwm10ukhNvpfnazrvD5zih+FoqN4cO8ErmcMqOllxU+27cvfHl7G2tZ1Ibgv6UfI12zJ2XOrc7Z4TdZe3pIvdXOIjsLtikZZwKThxjPi9rlrUmENh45m/XUEM/c2bM3burdytkWiumN/IcSrVroyfKBaAcMjNnNCLEzbpnLpCRFmu6o38b9+M2/bVAnzO/larzyjNTFdlekUVbwjh0Yqzjo8WhgEPYifuSratcr3nRJU3r2M8i+l53qyWjqEN318zCaqRVGJnhRhfLyXrs7aJuXB5FFRu/rcZNhItjtQ+TOFf8UbWdu2t7T5bXNGz0vGyWC16CaNjoa9FscpHQ0dTT5qA+8xHjWPvZSxVZtz4R7Xnpuwk9RaLOc9z2bD9pyt13uyeXch5B8GDi6gQ2VojB8RsRnjYuE9OZFmd74X+pwI87I8vy5rP38la7V6oO1fibADRhfvCYLAi9KdmpbzysLW0/fGEuDcjroZ2lO+N/3PTRJgKpB9R4qhMB+QkKX1XUcVSmfolpbVvVt0/ZghNXbZrLj9+qUpmybhqpOIdQcqBdbLeOa1rC3ZkLc39+QlUkVrVmFkBmFIJxWaxCbFVPCGGjtNAn/e1JhNGxu1Ja9n7R8kwlt25y1S7J4IU5C378vbYl37gsJctytveyWMaYVHK4aExfSO0NIZUFfq1pkpQVkooZs3Labv30NmiVcleE9K8J7bmLM9+4t2uElhSrSY0l5+9myHNUAVzCgJ4elK38VKx7QxsTBdvsyxijCTWdjV+6HlGXtsZdbWbMtbY5OETPf641+ptQtOi9swVXqV4JnvPVSwZWsl3ipPr22XEEp8W/S8snqvMFCird1w9XpegwbU2ARVmper5XaO4jhU9+3ovaUl9bPn0naXjtfUwqOiXTg9bp+5MhWuWb5eRoPC3SjxPdSoykuVNhVBQddRZnhHMARYLmDmmIjddH7Spuu5nUizPI+GPifCFIA7n26xf1iUtqEqRO+12d1boT7gJWeQERGihz+hh5vSJ+tGdAYFryz83AeLnd+5bKgKCtbHAonilWck7HwV4O7C1v6vySJ/QkKwWCL8sgreIRUqng3lJkrNpX+ElVPgMvpDBMaoIJ8xMWpzJsWsRYXxJyuytutgqQXRlQgz1XmVLNBFCm+xwl0li2qPBIgtpQgzNGd1nn4shal7Eg8qmXOVxktmJWyBBGXsMFln3SjcxAmxXbouZ4tkADyxSsIl0cNxBB/tmO5dfhdJXmgN6X9xfTla4n+eRAghPlviX+5jPxYRpvXAGtKPKx5PKN+YgXlEFQFp3q98+MuP1NpN5yWDNd4eZkRu3JG3x1R5sWDSy2o9bJYAc3H5eZXzLq/U8L4pakFMzz0lZhfr3bhIaWEcolIljXHwZ99vDFPxNymNVAoTB9fYb34gZUfSZk8pzi+qAqPFhOiiTbwi5GF4Ncg7/Y9Pxkv++EO1dt38RBj76I1UEuHoV77yp/8z2l3z6wSDNXEpCMtUAOv0gvfOVLx3eDEhobSzyE2tPpmS3Ob5VoSXPFgZqnuxcLBKY7IQa7FKJYYLVLhuXZi0GxckbYaa0N0BMadAL5Ml9b0n0/atx2TJ7i9YQoERL/bdQwxD2DooQhS0pP7Gs2uWtfrGroK9IMvokERln5qjRQRY9y0qrh+elwjWF90wbaHZ+uIbOfv+42n75uMZe0vWKGewkD1hEga/vx2ufkgpPCqpA81mK1RJrND1ddK5EYOjobncWasFqxCr8dm1Wfs/9zXbL17P2S79PlDh0RqLkc7Wc3k8/EzxIp36Z/sV5gsyHt6Slc/g6bSxsdAsJ++eXJ2zFRIk8iutcKYMj9qZehZTdU57yG8qA7oLXlAZuPOZjH39kRbbI2uYvE20ahQV0cUS85lqzre3hAmT8Ye7Zch84xFZqltbu21oMZTzTnEOeadLo8pJ0kH+MTX+1Z35kPf04Y4cFAndSwwuc34ZRPvOpzO2Za8iqzjzfuYKNWGp0sdX5ewVVi7UBeQd1/J8OMp5xzOj8iJfd6pCGSsrfPLIqI3Vu9AbKegFyuWUeW0y6Z1PpZdBk7tFtSldU22ee7+BQs3MN72/R0VEF45UgZkn6+XCSVG7YXbcvnBJyv7xY3V235cG2D/9ZoNdeVbShg/u/uuBIKyQAH/tpy3246VZG6hKgYO4pVVb7FeB3ylrZ6cso/0yf1ngnt936bNF15KWOmkNvQIb9pX6UymAXfHQsrT9zY+b7YcvZKyBrgYdXCdD1Xa2hnlI4bF8Z/n3I3pvEDHCw+rEWvzqfS32rw+1BKu6M+jrfVxW463/1hhEi3WjB+kehNkiwdlDGDoOKLyMbrWbdOp3LFvCrFWYw2VFskLcj57P2NOvZELeHS1BgA/k7d9+1mx/fEeT3fFcxoYoHuymQmEgjeTrWbJ+F54etwkj3/0saUne9mCzfe2htOV0/kDlXel5Wciz3UorCwnhFvl2XtLVQjoUDhN6anTud57M2F+pQtosYe0sLeQRsaC7Yc3u0uzLIboHFSLWNXm2U9/t1UE/OxseEO5+fQaXS5X1wXWR0CXSl+jV3REsOnO7LKAfLc+EAk9BdjoGEdivF/wTFyTtQ/PjYTCMgsFgG4MgDFzxgmOZtbVmuoImJwsOffkHTfaKmrMZ/Y4lRoE8rIJ1amt/74wJMRs6sGTVtEgh6NNfqVbMw2oGN6mFhpXEMySe5fCbVfg66o54SgL274vStkiiSB8iYeKLzQj8hGERu1yVC4OJQxpKIkmh332gaMtVWSxTPLfKimRNDoJCQEcPidh18+L2ZzfXdZgHP34ubf/+cIs9vyEfun24uEVxpDUxZ1TEzpkZt4mjoopnKR+blRdvbMvbkjWlvmrEDbHk8zQJ5OfU4vj4ZbVB/LvbHbFT+faM8uy2p9JhYafDag1gcSKgdLXgTz5N6b5hbtyumpe0qaOjoSnfNj2rN6v1oBbLDxdngiiS91SWCCwulVfMitnMiTG1DkpdNHR57T+oVodaAEtl/a6XZYuA6nTLKGyWYb1gesz+XBX5qCHRtwfQSP9//Zcj9pyuOaJwiCMtOK4j+/Rna9YXp4+I2lmtYwInyapmbRcqg217GNTN2xalc8zQiN2yMGWnq3XQW9dY7nPdETTpXt2UD/1xNJPapMtpB8KGtTFAzYaPSoSvVuGkX41Rapqpg1TwaOrjB300Agxv7SnYXRKEB1/OhYE3+kUxiDiunZ+0Xzk3YVfMidvZU+N2qprFUyRSk9SkpFkZmpZqdrMDyQGJSRC0Nq9jmH6t39t2RwRxl6n7Lw+22OI1KtwIuMI8IqEYrQJ8uSy/m5XGK05P2NzJEhM15wmzHN5EpZsF+mkWb1DhptsC8WfXEY4pw0r50n7w57WNOfuRLM7HVubCCqa8b1QSE06K2IfnJ+zGc5PB6pw36Z1hTlS8T1GYIwdLlHX/vUeKwfPkVJ3zIaVrvM5BCLvqjkDQnld6f6w43LcMUVeBVtprEDXETGI4UuJ/yay48jxpV52ZsNMlpCkqmtak6LTQ5fDdp1rs/heztn1/MSwKRXiD6eedErePXZiyD56RsHOmlZ7X1NZ0TFIaWGz+ZFVwLFK1YSdr3ZUqTgZydx0u2jCJ4xjlH33GQFgPyOJ/SxUHYk2eERc+Q5iqIK9QZXmT4nuZPhHiWeNjofKcEvIuEsKlO2UB3Sr6G4OcvZVK3RG9WoRxoXlNNTr9ery4LsIdg4VD8/QCveTXSjDwje4JsIJfknB8/actoalO3yGWTlyFlIG937kqZZfPkYCqQGG9YB1yIAyDGiKhIpgjoaBfe/ehgm1WYQ1vo54lj7OSCLPw0Evrc/aNR9O240DBaiWWOs1iuuc1sxP2yYtTds1ZybAlUr0qnXKYXEuYLIhPJVAn63/jHll4EkWEhHs0q6Y6LDGZPyUW+ofLZQXhv1PC9YtXJVyyoOlzRoBHDqmxayV2n7ksZRdI/JjsE1oTihMtDIQc6x23rhmjY6bWtNJTGvi8VOcjlAhaZ33C5N0OieXT+vu9SzL202WZYHjQl07RpXKNSqdP0T0/MCthH78oaR9Qno+WGLavUPHXZUnUf1berXgzF1YNREhxpbtgWsxuUeX1kQuTIUzEjviTDvKP58fzIi1MJqLPf5fyjv5hoDVB64bF97FaGW+oJMKQ1s8DZT2zRvRvXa53RPmAD/oAZVDIO11LuAP1+2jlA4OKY/T5Xr1YThT6XJ9wXC9OQg+FF5YXyekYRFjvvV13lgS4dUS+J8AV7dXNao1gFSkMDhlFNlqC8PefrrezJGYIYWcwqn7jeQn7qMRjqAqmWurhPh3BwNjdsrwbVavQtYFQI/4XS8x/XQV6walde3OMljXHKPv/uD4VxJl7pJQtGVmWd0rk3lQri90ugME4ujIelQiyPnWDxIH40Xy/UfdgEJNmdFfyQJifuabWvvm5erv3iwPsy9fWhgk37YUS+IpJH6x1TUvjgaVp++LtjfbDZzOhD3uo4kzFEWKotGM5/rdrUvaVj9YFd7SOmutY06wbTZcG13MW5WeORO5Tl6TsOlmkCG5nUDmdPzNuX/u1Ohs7Ui0KfccVEd3nmY16F2QU7VVF1hlNqjmopD9zSTJ04fRWl7OeoFeLMP1G9HU5nUM/YUKW0pyTI2ruxUNTvKfYsD1vL72RDZYUYtIotZ8pQfqti5M2StYQ1kx3wPJZIEvsCxIS/J7p46wEltVuWV+L1CzP6zwsQSz8mN6D37ux9qgsfATw7Olxu/FMfGhrQn8yalLULZj4shdXLcHkGWY9IiwIMikiegsnx+wSCd4pR1GpcW1DbeeTRMhHPAYaVSE8vDxjf/L9RvvTnzTbYbUAGpTPDMZSaezW7ycPjNgXr0zZbZ9tsCvmJ7vsK0WEf/JS1g6oIqtTBYZUFmqKdqvucaYqzO6CaJ4ia/m/LEjY7LERy6hCIt68B2vUOsXargTh8T7OVmvkA2oJzJvWdYXZ1+nVIswLNxSHd8pK5xVvvyYMnKhJfKusjlFqPvfkrKNNewv2+taCpSQqdEPg1jRVhfMiiRPCSsHsDpxHU/6sKXGbehL9sXqsFZ7pkeZCmMSxWU3h4LOqZz9c78ClsqqYHdbdCSWAgNMnebVaB/QBcz8KBC3e1VvytqtVhENf7OqsHWmS9dgqgPoqXEfTvCvLsT00yTvLF/7ENlYblbdLNuRsxaZ8qHAwFvEkoK7ApfDjEsA/+HCt3XRBMizcRHkoN/crwSQaXNreCFZ+KR5sEDBDzXzWUDmkyq3Szi+VDgYEdyh+E4ZH3t53kbyjK+UVxXedzqkE3ToHlXnnzYzZ7Amx0gYI/RzyrdfCSzekgvO+80uwOgakLMzUuuLMhFoOPZdfFOqdh4rBywAdQhxwv5osER1z0rv7I7sC64pZZXPHR8MsM+7XHmZUMa0VtykkkuU1sWIvnh4L02g7E6FKIKBnyKLlHkCQeAps2lUIE08AV0i8OJgJh68zENe5En7E+3hAVwETGHbL+j7cUgzudOQxodMVwt9H1NeEvuspo7tXEZAOunIOp0tdLOUr8Cz5yQsZu21Ri33j4aM7Hngla9v1PBjcJGvIOzwnth6o8PAE39JyOXVizMZIwJ1eLsJMZ2TKZAPWT9fvYL+j9MIXw8j2lbNiwcG9J70RGZQ7pBLVqOY62Y9oMiNs7GAGVkrnHC00Z2eNk6jI0kNg20OYBxtVilvfXMJsqIvYjLGsK3D0LwF9ybhEDdE96DohRKz53YcLwaUK6AJBaFgDhBAQ+iGq2JigcDwtOaze8sxHfI4ZgKN1QDIRTiYqrdmae7uy6AqmNjO5pbxADukgbZvUqviPx9P2dz9vsb//xdEd/3dR2tZsK1iyNZ7Ebb8qDxZ9qtSSCUKtd5C1LHqzl0NP0pp1vROsEVxyTlONysta6aH3V8gKms2UN1Znu0FN1p6GRYOY6Ya1XXK4L4Y++mPpp2fW1AiJOKUZ0WkPXQYsKPNLM07vgcLGT/VoLe+2MFV7kISVWyAkB1sk+Eob5JWufbJGEXyEi004S25fxxBgN+EZHslZmORSngBCHMiHp2Wdf/ORFluykgzpGgblG5v1ThDt1qjzQR/zMBk0I/XcjvrQdXXtK1zlEy6HiH57MNhHcI3KLt4TTi8XYWAGzbxT9BboX6VC21+hQmKW2kfOSdi1ZySsPsws6FmwaGrbDBRhQdJdwADSe4XlDrHs3rHLsH7ENQmBxsJmRa9Qy4DCxomBJnsFw7nbYPUGcRdIQ0hXq7gwjXaohKOsGawRkQueE8cQYDdgIX+6WK6ZFbef/f4A+/IVKRsvg+OQBJm4DFeePL8xb/+5JGOPr+haiGN6XvW1Sl+bqPNBJXpEhYcJJMdyMCtxl549FdoIGUfdHZTt7/R6EWYlqvlT41ajAtrZlMn+BNZSWp/zx0eD0/0sfR4PV3D6bekKwmcW64z+QDwXcNp/rzA9dT3TX6UpeAigEoheefF9CnbYKbv1WSNGTBBhRhVrKR8tXHKoqWj71UzHqicd6P8ApYtF+YG8GyZLOww06ncqnP3KYCaXdLSM6rHAHRHGMYMidvWZcfvslSlbeGppAsqVs+M2blgkbDcVKj/l19L1ObvruYytfDMXPDk6gkqMZ1ZKVSntoTtGgrlwRsyu1r2vOv29H1fruJ5lTz+QsotmxkNetodHyuzC96ER0Ws4DkXz/YWZOXMmx1p3pjjetsmJTzAg9YKPGFhjt5yfDDOQjtfgJYNBw+ojYYCIYOmSYPWyLQcKtu/w0deI9E8eaCzYi5tLU5/RQJ7pIAkH3Q2Eh/fDkIGl9CAiCPWhIwVbtiHXoVtbZ2Bxb9iWC2sOh0XH+U73ZQrzQFmNgPhPGBGxmKxj/kYeY/VRWRySEB8P8N0dOzhiF06P20KJI+k+bWLMrp+fsMtOK/2OUONFsfdQMaygdscz6bAeb0dCzJrVvAtUJlB+Qqxsdt28hH3qoqTdevGxHZ+9LGmfXJi0ObROO+CX1YADx6d0vo/wMuKoPnNkJKx9gJXSX6HoYQUPkWBdMT1mH78kFdaHOJ4wCBc2FpVFRncATvjrd7EoeO6oWyZMRV67NW/LtxZK/bEqq6xpMW1UxAbVSQSVFGZZMcBYl1J4+jvWICL06Kqc7TlUclvrLiG+smifei0bZs0htgg7fdvTx0bDqmCASM2eFLNECuHTCQoX74LFEr6teyXeZHwPQryIA5NIWN2tLUxsuFmV6/kTYlZQPKgQcDPbozz4p0fT9tirmbcXzm8Pg4jMZKOrgH5t4o374i5VfJNOjtmFsxN2xVnJYzoun5sM71xH3hohbYo0n06JXi/CQN/dlXPiNmxITZgs0F9hKij+tQtkPX3pxrouHfd7AharwUKjn5JCXS8ra7Us2W89kQ5TcRGr7vL6prz98LGWMNCGVU2faFJpuFAVSugHFhRuJihcJhGqV1oJk+myG2V9/3BRS+iW6C5YjJt0/jeezthGdvFQ+zncL2NhF4yTZA0DFcHcKfHQJUJNR29ISp/fWZKx59bnQuXxfsKay394U51NHlZadpM4M9tPdYT9r58024NMxsCDpAJM8b5uVjwIMQOOXLtdrZd7ZUWv0XNz3n969doRZRilHtIQsRfW58NqXmFN1+OvPycMKkfBIuKgufrpS5JhkW1Gn493NmBdYbUuWZkNBZq+PqzRAyrYByWME0ZEw+JAXT0PdtP4zyVpe1gWbVT34Xz8WidJ5D9/dW3wKS0vLsTfBspKfOaNfBgEpElO23qtLPB6CeZwCUxHu0iUaWop2tK1Ofv6z1ps7bZ8WJKRKFKJna6W1SfUimAQjH5UfIOxSrdsz4cdJ3DBYvF8ltuk24Xm/fQxXW/9dFh58rJE+/5nM2ErJKzBk4cS+VJ8urueMPmABwoLEa1TnHbJCiZf9HUYXKRFQBlg5mL7OHEelQmTQLbuK4SwGFDdop859SSVo+5shbRH+XCfhJudTBpV2dItSB61p+LaETpuOCdp42Ux93LpOWr63AI+ZXiwTAXdujevF6sYFhUp+y32dVSOS6PbUuAPzknYx9RUPVeWcHChKp1yXGGxFcRkrwR33U41g1sLGsK8SdYlXgfEg9Xb2q8hwaAWTeeHZLn9aGnanlmTM7ZoYkU8Fseh6Xzl6XG7YUEyuCOW31u6JfDtZUHxHRJBWgBYp/taB9iO6BMPAKYlI0Kh4IvQFFZerd+Ws4dfydo9EoenVHkwB5lzEAnE+7OXJu0c5SGLyQDhInyIHLPYVuEXG8QLES6GBegzEj/WCibfCbNNGQsVBYunL3o5a3c/l7Gn2YljC3u3FUMa6aftzipqZbg3YbA/H4vn7JTobt1fDNYwwe5RHrKYEoOL08fE3hGXiBJKpUh/9jbl/aEWCy5mB3Q+a1JgQeNexh6A5Hl732vEd4UE/P5lmZB/rOTGfTiXlePa4yL8TvqsCANJYKFp5ve/pGYVhbLty9cXwfJUWQ3uW5Nkif3+tSlbMK3jxVuOF3QRsPDO8o35MMuLmoE3aq9+XqlngcsZVjreB8zYYisfrLDVrLMr4fn2ohZbLKsW65nFcejXRmhZW+BmCTBbALV9llinTNBokvgxfXnbwdIgHrszbNJ9N+4o2J4DEmLdA+sToWSWHRuNrlSYj7yUsTuWSIAVdrQooVFkEQgqCbYc+r3raoMw0tRvyzAJ/07day0DckdK3WCkCxFauSUXBJFF0JkQsU/WKYsbURGxytzDK7J239KMPfp6LuzosUFiToth0rBI2F2DSShHs7MG+UG+M224Ufn6hlqAh5tK3Tj0W1MOWDt59vjSWsJli5jrEEwZ/KEfmdYD7xF5R4X2hirS7bvz4RmwaBHPjjU0tiuNTEV+fl3O/p9E9R68MXTtDv19s9LYIKuHrbDalzkX4XdSSYT73Jb39yxO21/c1RSsYd678ND7ICo3JbHSS3zGhKj902802BgVaCyxaoCIfPfhFvvWU2lbuyNvAxWPckxYK4C4DpcYTCGOejB7myRQEk+8KVgcHCuOZ4VVvzdbtCumxuy3rkx1ur8aq5x9/f5m+/Zjadt5pGADdN/yPVgEqFHhInIn47NKBa1K4dXdEh1d26DfEXzeEfLyoOJx7dyEffn6WpsrIe6ITUrbPUvS9j/uag7ixjrGGIukb5esWZgosZ4wSGEqMpskYEzhxfMCdz7SyVlMvDhjQsx+97Kk3XBBKuwT9173mGNX5Xsliv/9nqawuQGugnhx4A2xcFLM/uSWOpsuIW8vkPQD/91Pm+15VUzDW69DkGlZMDmFtYEnDK4Ji7yzxOcLSnvYeVlpIBwGRclr7nv9WQn7+q/Xv6PFAlj77Rd1p4b+3u8OCCuxlX2x+wt9blH3SlAwsATvX5YNa9T2xZqWgrJPhZjC8avnJOxLH6oLfaftC8D7CdYpg3ShNSILa52sJPpKedcQI54F3QHs7LFblmKjCjPlDwuMws95YRcNffdBFc7PX1NrC2YmOl0/ljDHyRKkP/K1TbmwNQ79m4gDhRv/ZSxVmtr7JMAISErXNCgu7JPGq4F40sd784KEfWph0s6U+LfvR20L3jgnDYqG6dkvyPJvTBMP0kizXvfWteyNx+LwVDA07UkfFQ8VJjUTz47zLzk1bp++NBXe2aPdY64tYfp+Q40NU9xY7AeLnH5yrNDVeg54r4warHzS+9IWds2g33sbXROynLFUiSMHM9p4JmyTtFfpOBhaOKW8I376F4SedF4wPW4fUf6dqkqFa9rilvA76dPdEWXCYuF6qQtK5yZZPU0qeD25alg1KVspTGhgAW76fz90dtJOVZOzmgIMhI0YDFcznjUVWAOC/Gd7o5K1VIofQsyhr0qfOnBry6uAn3JSxG6Yn7CPX5y0uZPj79gSvhLcryFVEhgWfJcG2U5Z1wiusigIPyIcwlGA/IwI4P5V2sFDlvmIiH1E+fgrEpEzZTWyiHhnMNjJou1jhkbtpIE1oS+XRXaOyOILOxO3Rpl0cZTvRnzYIgjPi1ljouHZ/eoCth6ScOkkPDWeWpWzF9fnQn9zo57zaSdHbb7yYfLozl9g0kFXCr7NzUp7GDxsKv0Ni3bexKhN0z3aL2FKWTlpYCTs+oH3yR61JnYoLYpKqMxCU0Y/4+5GXzpX89zC7t6FGhusfLjh7ITddF4i9KGXd9NoCyL82IpM6Etn4SBuyzgC1yDC/N6f6BcizEACljB7jL2lB8/us0GIe3ESKcysPEWhYEDq/Bkx+6hE46r5KsQq0BTCEwUGw+gWQaSoGBgEYgcLsh9LCMsTC4p3kJlvIyTaWPHzJpe21/+wmrXzp5UmI3QHBAzPGERmhAQ0qesQSXYyjikcKgD6XhGRGp1L5XDy4GjYsucshXnFHInIBarIxrFtTvdeEix8+ozZvoguBtLJoX92SJYjg5IIFwdhI3B4bLDN0RkTS1sasRXSHFm55UenqNqbO/Nh+/l9h0tCdfmseNjSpzveCljv7ODBzD5m8iHEtDb4/Xq9J6epom5fwYRnIPFG5FmDBSFngJttjvD+CPGXXgTfa53L4CobxLKO8Gyl4+JT9R4q78Ia1R14o1ABstvGaqVt64GCLGy9v9Nj9sG5CRvRrlLoD/SLPuG2UAOz9frjK7NhtFxlp1fVvBRMrDeEJKqCPEov7WVqwn7+qlTY6qU39KexLxsTN5br81VcvGiiq1APkEiOG1xjM2WJniuhmauCzN5lxwqDSXg/LFsrq1LhbpAAhC14FCYTPEapUjh7kgR4SsxOU/N5tITxWNm2p2Avrsva0tVZe+JNRLRoRZUzGfdBZCeryc+mnvMU7oLTEmHd5EpFDve1+55N273LsjZ+aI39zrW1dnHr7LijgR2c2Qvv2fV5O3NMxP7gV+vCcpddwYI722W4vLw+a8vW5WzlzoJt2VcMLmi1tWanKN5Y8VQes3QwYNoVGBB4LX3t5y32yMtZG6uK4g+vT4WKlrWc+xuV+oT7tAhT8J55NWPffSIdtoVhanO5/7E3gNVIc56m829ckLBbLpLVoZeXGVztR+5PVEJTVjVJ2TKkUAKVIc+BijG4f6k898RzKXdxhDD1/KnE+I5gQ5j6JCz8aHsqTMIjLMKkwiS8khVZDBYyDU1aYiFcpbWjMLkGt73ydv88ZxbdOdoo0gXAffgkbLodutvYDd02ShDXknf8/nbe6SilpXS/7r6D5A8Dt5THkC5aKbq2NxlEPUW/E2FgK3HcpH6+PGO3PZm2tF4GBhZOZD9itixHeJkZdv7UmF2u5uuccdHQ78m0XefEJwi/jt5SWTrvD/1ShIEmKjPpfvxixp5flbU1Wwth23Hm3IcaufW8aoC1QR8pvp04dTUkzGaqyce+ZTPUhDxzfNTOmBIP/XXdtWYcxzkx6bciDDSJWOv2UVnEzJZavilnBw6Xto5BCMkTBlaOdxNJQZWaeTr4hAG1rAYXsSENNTZxeMQumxkPkwbGj4xWze/XcZyep1+LcFt27i/YC2uzds9TaXtiQz648dA3iYdNW2OzLMhHI4Otuvo2NEnbUtCR14EbEEJcnzS7eEos+IwyQHX6pP71LBynP+Ei3AqDDmGvsqaibdyVtxXrsvbsmpw9vyFnW/YXrRAtOftjhDLRAIHuTIj5G90adCuEwSf9jvjij4rTfVheEzHWOeMG1ticMSVXpRnjosERn0W12YCzPF/fcZy+iYtwBegvZlES5sYzq2fz3kKY879tTz4sLnPgiNmhNLsulEZ3EdQMJqxAoBHfcEip+ayLmzVIvenDxXl9kAQWP9YhfA6M2IiGGhulT5zkh+o7JiSEHRtcex2nz+Mi3AVYsXhT7EGEJciIMIt9I8KsQ4ATPkJcFmFEF6d2so/VqVL6RIAZXMO3c1B9SYDxhxwswR1cX1rbwQfYHKd/4iJ8DODzif9m+33MWGu2PC2aVa3cJclxnI5wEXYcx6kilUTY7TbHcZwq4iLsOI5TRVyEHcdxqoiLsOM4ThVxEXYcx6kiLsKO4zhVxEXYcRynirgIO47jVBEXYcdxnCriIuw4jlNFXIQdx3GqiIuw4zhOFXERdhzHqSIuwo7jOFXERdhxHKeKuAg7juNUERdhx3GcKuIi7DiOU0VchB3HcaqIi7DjOE4VcRF2HMepIi7CjuM4VcRF2HEcp4q4CDuO41QRF2HHcZwq4iLsOI5TRVyEHcdxqoiLsOM4ThVxEXYcx6kiLsKO4zhVw+z/A9aJ3Io1vqCOAAAAAElFTkSuQmCC;" vertex="1" parent="1">
          <mxGeometry x="632.26" y="117.92" width="163" height="61.87" as="geometry" />
        </mxCell>
        <mxCell id="nSwH4TlJyu2oXSUZGrsc-33" value="build app" style="rounded=1;whiteSpace=wrap;html=1;" vertex="1" parent="1">
          <mxGeometry x="39.99999999999999" y="750" width="120" height="60" as="geometry" />
        </mxCell>
        <mxCell id="nSwH4TlJyu2oXSUZGrsc-34" value="test app" style="rounded=1;whiteSpace=wrap;html=1;" vertex="1" parent="1">
          <mxGeometry x="206.75" y="750" width="120" height="60" as="geometry" />
        </mxCell>
        <mxCell id="nSwH4TlJyu2oXSUZGrsc-35" value="sonarquber" style="rounded=1;whiteSpace=wrap;html=1;" vertex="1" parent="1">
          <mxGeometry x="370" y="750" width="120" height="60" as="geometry" />
        </mxCell>
        <mxCell id="nSwH4TlJyu2oXSUZGrsc-36" value="deploy homologa" style="rounded=1;whiteSpace=wrap;html=1;" vertex="1" parent="1">
          <mxGeometry x="520" y="750" width="120" height="60" as="geometry" />
        </mxCell>
        <mxCell id="nSwH4TlJyu2oXSUZGrsc-37" value="deploy produÃ§Ã£o" style="rounded=1;whiteSpace=wrap;html=1;" vertex="1" parent="1">
          <mxGeometry x="675.26" y="750" width="120" height="60" as="geometry" />
        </mxCell>
      </root>
    </mxGraphModel>
  </diagram>
</mxfile>
